<svg width="67" height="20" viewBox="0 0 67 20" fill="none" xmlns="http://www.w3.org/2000/svg">
<g id="Layer_1" clip-path="url(#clip0_2548_6308)">
<g id="Group">
<path id="Vector" d="M12.2451 7.14397C12.6976 5.40066 14.6823 5.28981 15.2464 5.36781H20.1963C21.3887 5.27256 22.0579 6.4657 22.1523 6.95346L22.1507 19.7905H17.3806V9.89894C17.31 9.60578 17.2394 9.38572 16.8846 9.33727L16.144 9.35287C15.9781 9.35287 15.813 9.5483 15.7662 9.84145L15.7087 10.243H12.2451V7.14315V7.14397Z" fill="white"/>
<path id="Vector_2" d="M12.4286 7.19164C12.8491 5.56904 14.7377 5.48856 15.2205 5.5559L15.2337 5.55754H20.1967C21.2486 5.4746 21.8785 6.53471 21.9671 6.99045L21.9639 6.95432L21.9622 19.7914L22.1511 19.6025H17.381L17.5699 19.7914V9.8998V9.87763L17.5649 9.85545C17.5001 9.58694 17.4114 9.21988 16.9105 9.15091L16.8957 9.14926H16.8809L16.1402 9.16569C15.8734 9.16569 15.641 9.43174 15.5794 9.81358C15.5794 9.81686 15.5211 10.2184 15.5211 10.2184L15.7083 10.0558H12.2447L12.4336 10.2447V7.14483L12.4278 7.19246L12.4286 7.19164ZM12.0566 7.14401V10.2439V10.4327H15.8734L15.8964 10.2701L15.9538 9.86859C15.9908 9.64031 16.1049 9.54177 16.1443 9.54177C16.1484 9.54177 16.8883 9.52617 16.8883 9.52617L16.8587 9.52453C17.0731 9.55409 17.1232 9.64031 17.1962 9.94332L17.1913 9.89898V19.7906V19.9794H22.3391V19.7906L22.3408 6.9535V6.93544L22.3375 6.91737C22.2143 6.2818 21.4326 5.07881 20.1811 5.17899C20.1959 5.17899 15.2468 5.17899 15.2468 5.17899L15.2731 5.18063C14.4183 5.06156 12.5099 5.3736 12.0632 7.09638L12.0575 7.11937V7.14319L12.0566 7.14401Z" fill="#231F20"/>
</g>
<g id="Group_2">
<path id="Vector_3" d="M22.1426 7.13579C22.4177 6.09211 23.353 5.36785 24.3449 5.36785H30.5093C31.925 5.33665 32.7026 7.05122 32.673 7.79518V17.3435C32.673 18.8619 32.0005 19.6929 30.4502 19.8037H27.2789C25.6415 19.8037 24.3786 18.494 24.3786 16.8008C24.3786 15.1075 25.6711 13.6861 27.3084 13.6861C27.4168 13.6861 27.678 13.6418 27.7831 13.6541V9.99669C27.7125 9.58119 27.7584 9.51878 27.4275 9.51878H25.9954C25.8895 9.56723 25.5307 9.57544 25.5315 9.90554L25.5446 10.4179L22.1565 10.4023L22.1434 7.13579H22.1426Z" fill="white"/>
<path id="Vector_4" d="M22.3259 7.18423C22.5747 6.24155 23.4238 5.55671 24.346 5.55671H30.5104C30.9579 5.54685 31.3644 5.72669 31.7216 6.09046C32.2143 6.59218 32.5017 7.36242 32.4844 7.78778C32.4844 7.79517 32.4844 17.3435 32.4844 17.3435C32.4844 18.8134 31.8529 19.5138 30.4373 19.6148C30.4504 19.6148 27.2791 19.6148 27.2791 19.6148C25.7592 19.6148 24.5685 18.379 24.5685 16.8008C24.5685 15.2225 25.7978 13.8758 27.3087 13.8758C27.3637 13.8758 27.436 13.8684 27.5205 13.8594C27.6002 13.8512 27.7209 13.838 27.762 13.8421L27.9722 13.8651V9.98026L27.9697 9.96466C27.9599 9.90718 27.9525 9.85626 27.9459 9.81192C27.8958 9.47689 27.8318 9.32991 27.4278 9.32991H25.9957H25.9538L25.916 9.34715C25.9078 9.35043 25.8782 9.35782 25.8569 9.36357C25.7025 9.40299 25.3412 9.4966 25.3412 9.90635C25.3412 9.91128 25.3543 10.4229 25.3543 10.4229L25.544 10.2291L22.1559 10.2135L22.344 10.4015L22.3309 7.13496L22.3243 7.18423H22.3259ZM21.9539 7.13661L21.9671 10.4032V10.5904L22.1551 10.5912L25.5432 10.6068H25.7378L25.7329 10.413L25.7198 9.90061C25.7198 9.81192 25.7649 9.77661 25.9513 9.72899C25.9957 9.71749 26.0367 9.70681 26.0737 9.69039L25.9948 9.70764H27.4269C27.5263 9.70764 27.555 9.71503 27.5624 9.71749C27.5542 9.7142 27.5419 9.70353 27.5378 9.69532C27.5485 9.71667 27.56 9.79632 27.5706 9.86694C27.5772 9.91374 27.5854 9.96712 27.5961 10.0279L27.5936 9.99586V13.6533L27.8038 13.4652C27.7275 13.457 27.6265 13.4661 27.4803 13.4817C27.413 13.489 27.3432 13.4964 27.3087 13.4964C25.5892 13.4964 24.1899 14.9786 24.1899 16.7999C24.1899 18.6212 25.5465 19.9926 27.2791 19.9926H30.4504C32.0779 19.8768 32.8621 19.0105 32.8621 17.3435V7.79517C32.8818 7.29427 32.5838 6.42877 31.9909 5.82523C31.5639 5.39001 31.0499 5.16666 30.5054 5.17816C30.5095 5.17816 24.3451 5.17816 24.3451 5.17816C23.2547 5.17816 22.2512 5.98124 21.9597 7.08734L21.9531 7.11115V7.13578L21.9539 7.13661Z" fill="#231F20"/>
</g>
<path id="Vector_5" fill-rule="evenodd" clip-rule="evenodd" d="M49.8477 7.93479C49.9856 6.55854 51.7322 5.303 52.7398 5.36787H62.7094C64.9725 5.14698 66.0597 6.85005 65.8996 8.76662L65.902 19.7709L60.861 19.8037V13.3306L58.6438 18.4004C58.2661 19.1337 57.4811 19.7996 56.2658 19.7914L52.4441 19.8046C51.0515 19.7397 50.0677 18.5909 49.8846 16.9305L49.8485 7.93561L49.8477 7.93479ZM55.7583 14.8366C55.5456 14.7635 55.0258 14.5681 54.8846 14.1772V14.8858C54.9322 15.2283 55.0735 15.4968 55.4282 15.5452L55.7591 14.8366H55.7583ZM60.8823 9.85711C60.7411 9.27081 60.4331 8.89226 60.0086 8.56215C60.6828 8.76662 60.6828 8.79947 60.8897 9.31679L60.8823 9.85711Z" fill="white"/>
<path id="Vector_6" d="M50.035 7.95368C50.1639 6.662 51.8316 5.49925 52.7267 5.55673C52.739 5.55673 62.7078 5.55673 62.7078 5.55673C63.6267 5.46805 64.3846 5.69879 64.9167 6.22433C65.5063 6.8057 65.7953 7.72622 65.7091 8.75102C65.7091 8.76662 65.7108 19.7717 65.7108 19.7717L65.8988 19.5828L60.8578 19.6157L61.0483 19.8046V13.3314L60.6861 13.2559L58.469 18.3257C58.2728 18.705 57.6544 19.6124 56.265 19.6034C56.2634 19.6034 52.4418 19.6165 52.4418 19.6165C51.1796 19.5574 50.2452 18.4956 50.0703 16.9108V16.9305L50.0358 7.93561V7.95532L50.035 7.95368ZM49.6572 7.93561L49.6934 16.9305V16.9502C49.8913 18.7305 50.9661 19.9244 52.4335 19.9926C52.4426 19.9926 56.265 19.9803 56.265 19.9803C57.8622 19.9918 58.5774 18.9399 58.8106 18.4874C58.8155 18.4768 61.0327 13.4061 61.0327 13.4061L60.6705 13.3306V19.9942H60.861L65.9021 19.9606H66.0901V19.7717L66.0877 8.76744C66.1821 7.64656 65.852 6.61602 65.1828 5.95581C64.5677 5.34898 63.7055 5.08128 62.6897 5.18064C62.7078 5.17982 52.739 5.17982 52.739 5.17982C51.6978 5.11249 49.8091 6.41319 49.6589 7.91672V7.92658L49.658 7.93643L49.6572 7.93561Z" fill="#231F20"/>
<path id="Vector_7" d="M55.8193 14.6576C55.2905 14.4753 55.1156 14.2601 55.0614 14.1123L54.6943 14.1772V14.899L54.696 14.9121C54.7641 15.4015 55.0006 15.6782 55.4005 15.7333L55.5385 15.7521L55.5976 15.6257L55.9285 14.917L56.0172 14.7265L55.8185 14.6584L55.8193 14.6576ZM55.5869 14.7561L55.256 15.4647L55.4531 15.3572C55.2954 15.3358 55.1271 15.2595 55.0712 14.8587L55.0729 14.885V14.1764L54.7058 14.2412C54.8249 14.5697 55.1583 14.83 55.6961 15.0156L55.5861 14.7569L55.5869 14.7561Z" fill="#231F20"/>
<path id="Vector_8" d="M61.0658 9.81283C60.9279 9.24295 60.638 8.81184 60.124 8.41276L59.9532 8.74287C60.3348 8.85892 60.5841 9.06284 60.7013 9.35462L60.7144 9.38747L60.7013 9.31439L60.6939 9.85471L61.0667 9.81283H61.0658ZM61.0708 9.85963L61.0782 9.31932V9.28154L61.065 9.24623L61.0519 9.21339C60.8277 8.65254 60.7538 8.59013 60.0624 8.38074L59.8916 8.71084C60.3391 9.05819 60.5797 9.41375 60.6972 9.90069L61.07 9.85881L61.0708 9.85963Z" fill="#231F20"/>
<path id="Vector_9" fill-rule="evenodd" clip-rule="evenodd" d="M12.2528 18.1204C12.1584 19.1468 11.389 19.8062 9.78278 19.8062L2.98528 19.8005C1.6624 19.6535 0.575195 18.7141 0.575195 16.809V14.3661C0.634318 13.3306 1.24772 12.5324 2.02781 11.9708C1.26332 11.3032 0.694263 10.5789 0.694263 9.1222C0.694263 7.1112 2.35628 5.34325 4.45843 5.36789C6.26661 5.33586 7.36285 6.24159 7.74797 7.56858V5.36789H12.2528V18.1204ZM7.73401 10.6389C7.38009 11.8607 5.4783 13.0514 5.4783 13.7601V15.7653C5.51361 15.9977 5.78131 16.1948 6.08842 16.2432L7.21504 16.258C7.48684 16.1726 7.66339 16.0626 7.73483 15.6233V10.6389H7.73401Z" fill="white"/>
<path id="Vector_10" d="M12.0652 18.1031C11.9502 19.3546 10.7612 19.6173 9.78317 19.6173L2.98649 19.6116H3.00702C1.60285 19.4572 0.76527 18.4086 0.76527 16.809V14.3661C0.826857 13.2887 1.54619 12.5513 2.13906 12.1243L2.33203 11.9847L2.15302 11.8279C1.36964 11.1439 0.884337 10.4524 0.884337 9.12218C0.884337 8.18114 1.27685 7.25324 1.96169 6.57661C2.6375 5.90819 3.52352 5.54606 4.45717 5.55673C6.06992 5.52799 7.17273 6.26128 7.5677 7.62111L7.93886 7.56856V5.36787L7.75 5.55673H12.2548L12.066 5.36787C12.066 5.36787 12.066 18.1204 12.066 18.1031H12.0652ZM12.4421 18.1204V5.179H7.55867V7.56938L7.92983 7.51683C7.48969 6.00016 6.22265 5.1478 4.45471 5.17983C3.42581 5.16751 2.44371 5.56823 1.69482 6.30891C0.938534 7.05534 0.504965 8.08096 0.504965 9.123C0.504965 10.5912 1.06417 11.3804 1.90339 12.1136L1.91735 11.8172C0.972201 12.4988 0.443378 13.3766 0.386719 14.3554C0.386719 14.3661 0.386719 16.809 0.386719 16.809C0.386719 18.6213 1.35075 19.8095 2.96514 19.9885H2.97581L2.98649 19.9893L9.78399 19.9951C11.9486 19.9951 12.3788 18.8315 12.4437 18.1196L12.4421 18.1204Z" fill="#231F20"/>
<path id="Vector_11" d="M7.55298 10.5863C7.38054 11.1808 6.78767 11.7942 6.26459 12.3361C5.71935 12.9003 5.28906 13.3462 5.28906 13.76V15.7792L5.29153 15.7932C5.33915 16.1036 5.65448 16.3655 6.05848 16.4296L6.07244 16.4321H6.0864L7.21302 16.4468H7.24341L7.27215 16.4378C7.6121 16.3311 7.83956 16.1619 7.92168 15.652L7.92414 15.6372V10.638L7.55298 10.5854V10.5863ZM7.54559 10.6388V15.6232L7.54805 15.5928C7.48975 15.9566 7.36822 16.0116 7.15883 16.0773L7.21795 16.0683L6.09133 16.0535L6.11843 16.056C5.89015 16.0198 5.68732 15.8761 5.66597 15.7357L5.66844 15.7645V13.7592C5.66844 13.4981 6.11022 13.0407 6.53722 12.5981C7.09067 12.0249 7.71803 11.3754 7.91675 10.6906L7.54559 10.638V10.6388Z" fill="#231F20"/>
<path id="Vector_12" fill-rule="evenodd" clip-rule="evenodd" d="M49.8426 8.10229L49.8788 17.0972C49.7868 18.2829 48.7784 19.9433 46.6221 19.8013H42.7241C41.9678 19.8259 41.2969 19.3849 40.9816 18.8996C40.4109 18.0226 40.6186 15.0772 39.6973 14.2026C39.4633 13.9801 39.1709 13.8643 38.84 13.8151H38.0993C37.8029 13.8471 37.7733 13.5695 37.7733 14.1386C39.2851 14.0417 40.3394 15.179 40.3394 16.7646C40.4766 18.5671 39.4682 19.6953 37.7709 19.7906H35.3403C34.3311 19.8382 32.8128 18.5268 32.6748 17.2458V12.1317C32.6748 12.1317 32.9129 11.4255 33.3564 10.9665C33.7998 10.5083 34.4239 10.3063 34.4239 10.3063L32.6748 10.3186V7.66461C32.8522 6.27276 34.7786 5.17242 36.0834 5.36621H44.4115C44.8369 5.22004 45.0635 4.98601 45.0635 4.36276L45.0676 0.293945L49.9535 0.306263V5.65772C49.942 5.87779 49.8262 6.38115 49.6489 6.51582C49.6489 6.51582 49.7162 6.69319 49.8049 6.95267C49.8936 7.21134 49.8418 8.10147 49.8418 8.10147L49.8426 8.10229ZM37.8612 9.2519H37.2002C36.9169 9.27654 36.9776 9.35619 36.9432 9.47854L36.9308 9.75527L37.862 9.2519H37.8612ZM42.6034 10.482L43.5116 9.80125C43.7242 9.70354 43.8187 9.87434 43.8187 10.1675V14.8193L43.0271 11.1841C42.9326 10.854 42.816 10.6413 42.6034 10.482Z" fill="white"/>
<path id="Vector_13" d="M49.6522 8.10308L49.6884 17.098C49.6079 18.1335 48.7063 19.7495 46.6337 19.6124C46.6213 19.6124 42.7225 19.6124 42.7225 19.6124C42.0114 19.6353 41.4046 19.2059 41.1385 18.797C40.9168 18.457 40.8174 17.7163 40.7123 16.9321C40.5588 15.7915 40.4003 14.6115 39.8263 14.0663C39.5783 13.8306 39.2646 13.6877 38.8664 13.6286L38.8524 13.6262H38.0772C38.0222 13.6335 37.9845 13.6212 37.9442 13.6089C37.8908 13.5917 37.7907 13.5596 37.6962 13.6294C37.5829 13.7124 37.5829 13.8462 37.5829 14.1394V14.3414L37.7841 14.3282C38.4205 14.2872 38.983 14.4777 39.4108 14.8784C39.8871 15.3251 40.1498 15.9952 40.1498 16.7654C40.2139 17.6145 40.0193 18.3158 39.5882 18.8084C39.1718 19.2839 38.5396 19.559 37.7603 19.6025C37.771 19.6025 35.3403 19.6025 35.3403 19.6025C34.4215 19.6452 32.9918 18.4241 32.8629 17.2269V17.2474L32.8637 12.1333L32.8539 12.1941C32.8564 12.1875 33.0846 11.5215 33.4919 11.1003C33.8951 10.6831 34.4757 10.491 34.4814 10.4885L34.4215 10.119L32.6724 10.1313L32.8629 10.3202V7.66622L32.8613 7.69004C32.927 7.17764 33.2669 6.66524 33.8204 6.24645C34.5069 5.72666 35.3839 5.45568 36.0547 5.55504L36.0687 5.5575H44.4428L44.4724 5.54683C45.0258 5.3555 45.2525 5.01308 45.2525 4.36437L45.2566 0.295555L45.0669 0.48442L49.9528 0.496737L49.7639 0.307872V5.65933C49.7516 5.88268 49.6309 6.29326 49.534 6.36634L49.4207 6.45174L49.4707 6.58394C49.4707 6.58394 49.5381 6.76213 49.6251 7.01505C49.6777 7.16943 49.6728 7.73684 49.6522 8.10308ZM50.0308 8.11375C50.0398 7.95937 50.08 7.17271 49.984 6.8927C49.8953 6.63403 49.8279 6.45749 49.8255 6.4501L49.7631 6.6677C50.0217 6.47145 50.1318 5.86708 50.1424 5.66918C50.1424 5.65933 50.1424 0.307872 50.1424 0.307872V0.119007H49.9536L45.0677 0.106689H44.878V0.295555L44.8739 4.36437C44.8739 4.90879 44.6974 5.06892 44.3492 5.1888L44.4108 5.17813H36.0827L36.1106 5.18059C35.3444 5.06645 34.3558 5.36617 33.5921 5.94427C32.9574 6.42464 32.5648 7.02737 32.486 7.64159L32.4844 7.65308V10.5099L32.6749 10.5082L34.4239 10.4959L34.3648 10.1264C34.3377 10.1354 33.6898 10.3481 33.2193 10.8351C32.7521 11.3187 32.5049 12.0405 32.4942 12.0717L32.4844 12.1013V17.2663C32.6363 18.6721 34.2778 20.0295 35.3477 19.9794C35.3387 19.9794 37.7693 19.9794 37.7693 19.9794C38.6627 19.9293 39.3862 19.6107 39.8715 19.0573C40.3715 18.4866 40.5982 17.6884 40.5267 16.7506C40.5267 15.8892 40.2221 15.1215 39.6695 14.6025C39.1636 14.1287 38.5034 13.9029 37.7603 13.9505L37.9615 14.1394C37.9615 14.0753 37.9615 13.9053 37.9705 13.8684C37.9557 13.9275 37.8695 13.9776 37.8087 13.9636C37.812 13.9645 37.8227 13.9678 37.8301 13.9702C37.8876 13.9883 37.9836 14.0195 38.1191 14.0047H38.0986L38.8393 14.0055L38.8114 14.0039C39.13 14.0507 39.3763 14.1615 39.566 14.3414C40.0439 14.7947 40.1999 15.9574 40.3379 16.9838C40.4487 17.8116 40.5538 18.5933 40.8224 19.0047C41.1549 19.5163 41.8743 20.0196 42.7299 19.9917C42.7233 19.9917 46.6222 19.9917 46.6222 19.9917C48.9542 20.1461 49.9749 18.3084 50.0669 17.1128C50.0669 17.0972 50.0316 8.10226 50.0316 8.11457L50.0308 8.11375Z" fill="#231F20"/>
<path id="Vector_14" d="M37.8612 9.06308H37.2002C36.9136 9.08689 36.797 9.1764 36.7683 9.38333C36.7658 9.39975 36.7642 9.41453 36.7609 9.42603L36.7543 9.44738V9.46955L36.7404 9.74628L36.7256 10.0805L37.0196 9.92118L37.9507 9.41782L37.8604 9.06226L37.8612 9.06308ZM37.7709 9.08607L36.8397 9.58944L37.1189 9.76434L37.1312 9.48761L37.1238 9.53113C37.1345 9.49254 37.1394 9.45887 37.1427 9.43424C37.1436 9.42603 37.1452 9.41371 37.146 9.41042C37.1419 9.42767 37.123 9.4523 37.1074 9.45887C37.1082 9.45887 37.1321 9.44738 37.215 9.44081C37.1986 9.44081 37.8596 9.44081 37.8596 9.44081L37.7693 9.08525L37.7709 9.08607Z" fill="#231F20"/>
<path id="Vector_15" d="M42.7159 10.633L43.6241 9.9523L43.5896 9.97283C43.611 9.96297 43.62 9.96215 43.62 9.96215C43.6118 9.96215 43.597 9.9564 43.5913 9.94983C43.6011 9.96133 43.6282 10.0237 43.6282 10.1666V14.8184L44.0027 14.7782L43.2111 11.143C43.0961 10.7398 42.9532 10.5074 42.7159 10.33V10.633ZM42.4893 10.6339C42.6568 10.7587 42.7561 10.9278 42.8448 11.2366C42.8415 11.2251 43.6331 14.8603 43.6331 14.8603L44.0076 14.8201V10.1683C44.0076 9.90303 43.9386 9.72484 43.8031 9.6378C43.7423 9.5992 43.6142 9.54665 43.4328 9.63041L43.4147 9.63862L43.3983 9.65093L42.4901 10.3317L42.2881 10.4836L42.4909 10.6347L42.4893 10.6339Z" fill="#231F20"/>
<g id="Group_3">
<path id="Vector_16" d="M7.74805 0.188843H12.2529V5.14122H7.74805V0.188843Z" fill="white"/>
<path id="Vector_17" d="M7.74844 0.378551H12.2533L12.0644 0.189686V5.14206L12.2533 4.95319H7.74844L7.9373 5.14206V0.188865L7.74844 0.37773V0.378551ZM7.55957 0.188865V5.3301H12.443V0H7.55957V0.188865Z" fill="#231F20"/>
</g>
<path id="Vector_18" d="M8.37598 0.868774H11.631V4.44818H8.37598V0.868774Z" fill="#EC1C24"/>
<path id="Vector_19" fill-rule="evenodd" clip-rule="evenodd" d="M11.6306 17.6031C11.5838 18.7273 10.922 19.0204 10.2609 19.1181L2.79172 19.1116C2.03626 18.9646 1.18555 18.1467 1.18555 17.0102L1.19212 14.3284C1.33418 13.3996 1.9952 12.8133 2.89272 11.8854C1.90077 11.2499 1.33418 10.1249 1.33418 9.10008C1.33418 7.39126 2.84099 6.05196 4.49315 6.05196C6.14531 6.05196 7.48461 7.43724 7.48461 9.14606C7.48461 9.85554 7.25387 10.5084 6.86628 11.0306C6.24714 11.9339 5.30199 12.4717 4.82982 13.3996L4.84378 15.822C4.84378 16.5553 5.3143 16.7598 5.8809 16.8575L7.38033 16.8682C8.11279 16.7458 8.34682 16.4174 8.37064 15.6603V6.04703L11.6273 6.02979L11.6306 17.6023V17.6031ZM3.27045 8.75519C3.27045 8.32491 3.60795 7.97592 4.02427 7.97592C4.4406 7.97592 4.77809 8.32491 4.77809 8.75519C4.77809 9.18548 4.4406 9.53447 4.02427 9.53447C3.60795 9.53447 3.27045 9.18548 3.27045 8.75519Z" fill="#EC1C24"/>
<path id="Vector_20" fill-rule="evenodd" clip-rule="evenodd" d="M32.052 17.4734C32.052 18.3282 31.3614 19.0024 30.6297 19.1239L27.6095 19.137C26.2661 19.137 25.1559 18.2026 25.1559 16.8132C25.1559 15.4238 26.2448 14.2963 27.5882 14.2963C27.9897 14.2963 28.2262 14.4671 28.4151 14.5895V9.84979C28.4627 9.31193 28.1671 8.82335 27.4231 8.82335H25.6281C25.0615 8.87262 24.8956 9.23885 24.9194 9.75207H22.7409L22.7393 7.67209C22.7861 6.89035 23.3231 6.18252 24.0194 6.04785L30.3308 6.0536C31.5116 6.10287 32.0068 7.3075 32.0536 8.11387L32.0511 17.4742L32.052 17.4734ZM26.5527 16.6974C26.5527 16.2671 26.8902 15.9181 27.3065 15.9181C27.7228 15.9181 28.0603 16.2671 28.0603 16.6974C28.0603 17.1277 27.7228 17.4767 27.3065 17.4767C26.8902 17.4767 26.5527 17.1277 26.5527 16.6974Z" fill="#EC1C24"/>
<path id="Vector_21" fill-rule="evenodd" clip-rule="evenodd" d="M39.1526 13.099L37.8979 13.1064C37.5966 13.0809 37.31 13.1721 37.0981 13.6369V14.8341C37.25 14.7996 37.4085 14.7364 37.5703 14.7364C38.77 14.7364 39.7431 15.7431 39.7431 16.9839C39.7431 18.2247 38.7946 19.1246 37.5941 19.1246H35.2793C34.2635 18.8922 33.2822 17.9857 33.2822 16.6907V12.7328C33.3299 11.7556 34.4171 10.6684 35.4911 10.583H36.814L40.0264 8.77482H36.6251C36.2827 8.94562 36.2827 9.14106 36.2474 9.65428H33.2822V8.0908C33.3299 6.96664 34.4573 6.04859 35.8155 6.04859H44.7365C45.418 5.72506 45.6373 5.40645 45.6849 4.62472L45.694 1.02478H49.3308V5.35472C49.2832 5.96566 49.1182 6.16109 48.8587 6.52733C49.1773 6.85743 49.2126 7.30906 49.284 7.79765V16.7638C49.284 18.0588 48.3364 18.8922 47.4036 19.1246H42.6319C41.2622 18.9776 41.3008 17.8149 41.0651 16.6907C40.882 15.8187 40.8409 14.9565 40.4985 14.2478C40.3129 13.8528 39.9139 13.2181 39.1518 13.0998L39.1526 13.099ZM43.8299 8.82902C44.2553 8.7313 44.3497 9.02445 44.4442 9.56231V16.2079C44.468 16.5503 43.7831 17.0874 43.4998 15.817L42.5079 11.8591C42.4134 11.0773 42.0234 10.6011 41.3271 10.491L43.8308 8.82984L43.8299 8.82902ZM37.0431 16.7425C37.0431 16.3122 37.3806 15.9632 37.7961 15.9632C38.2116 15.9632 38.5499 16.3122 38.5499 16.7425C38.5499 17.1728 38.2124 17.5217 37.7961 17.5217C37.3798 17.5217 37.0431 17.1728 37.0431 16.7425Z" fill="#EC1C24"/>
<path id="Vector_22" d="M12.8719 9.56978V7.71315C12.9187 6.78443 13.5609 6.14557 14.506 6.04785H19.8517C21.0325 6.09712 21.3955 6.79756 21.5367 7.56698L21.5302 19.1247H17.9992L18.0058 9.66831C18.0534 9.13046 17.7578 8.64187 17.0138 8.64187H15.7689C15.2023 8.66651 15.2023 9.03274 15.1547 9.5706H12.8711L12.8719 9.56978Z" fill="#EC1C24"/>
<path id="Vector_23" fill-rule="evenodd" clip-rule="evenodd" d="M56.7255 14.3727C55.1669 14.275 54.5527 12.8166 54.5527 11.4896C54.5527 9.77586 55.828 8.26494 57.6468 8.41111C59.3039 8.41111 60.6465 9.8005 60.6465 11.5142C60.6465 11.9068 60.5866 12.1703 60.4576 12.5161L58.0722 18.1352C57.7651 18.6722 57.2461 19.027 56.3954 19.1247H52.9474C51.1523 19.027 50.6169 17.966 50.4872 16.341L50.4814 8.32653C50.6588 7.19005 51.5169 6.25476 52.6977 6.05933H63.1568C64.4558 6.05933 65.1275 6.97902 65.2696 8.15162L65.277 19.1247H61.498L61.4833 9.38171C61.3888 8.47762 60.9298 8.06951 59.891 8.02024H56.0883C55.2614 8.06869 54.5059 8.06869 54.3171 8.99741V15.1544C54.4591 15.9362 54.9781 16.4247 55.9232 16.0831L56.7263 14.3727H56.7255ZM56.5399 11.2137C56.5399 10.7834 56.8774 10.4344 57.2929 10.4344C57.7084 10.4344 58.0467 10.7834 58.0467 11.2137C58.0467 11.644 57.7092 11.993 57.2929 11.993C56.8766 11.993 56.5399 11.644 56.5399 11.2137Z" fill="#EC1C24"/>
</g>
<defs>
<clipPath id="clip0_2548_6308">
<rect width="65.7169" height="20" fill="white" transform="translate(0.386719)"/>
</clipPath>
</defs>
</svg>
