<svg width="66" height="26" viewBox="0 0 66 26" fill="none" xmlns="http://www.w3.org/2000/svg">
<g id="Layer_1" clip-path="url(#clip0_2548_6301)">
<path id="Vector" fill-rule="evenodd" clip-rule="evenodd" d="M24.06 12.5477C24.06 11.9459 24.5248 11.4591 25.0981 11.4591C25.6714 11.4591 26.1362 11.9472 26.1362 12.5477C26.1362 13.1481 25.6714 13.6362 25.0981 13.6362C24.5248 13.6362 24.06 13.1494 24.06 12.5477ZM23.585 5.94995C24.1354 6.13386 25.96 8.28531 25.96 8.28531L28.1102 5.977C28.1102 5.977 30.286 5.79309 31.711 7.97159C32.1362 8.68017 32.1362 9.07368 32.1362 9.07368V22.3759H28.6861V8.54765C28.6861 8.54765 28.6605 7.81337 28.086 7.86611C27.436 7.84042 25.9613 9.80796 25.9613 9.80796L23.986 7.73494C23.986 7.73494 23.2862 7.21026 22.3107 8.96821C22.0911 9.36442 21.7859 9.93913 21.8855 11.5132C21.957 12.6437 22.0362 13.6119 22.8355 15.2387C23.3233 16.2299 23.6348 17.1535 24.2107 17.6781L25.2105 14.3719C25.2105 14.3719 24.6601 14.4246 24.1098 14.0838C23.5595 13.7431 23.0845 12.9817 23.5097 11.7228C23.6885 11.1913 24.0843 10.7789 24.9091 10.7262C25.734 10.6734 26.2345 10.9358 26.7095 11.382C27.1845 11.8282 27.6097 12.7207 27.385 14.242C27.2611 15.0818 25.7353 21.0642 25.7595 21.2481C25.7851 21.432 25.7595 22.3245 25.7595 22.3245H22.6593V19.4915C22.6593 19.3604 22.5342 18.1 22.0847 16.9723C21.7221 16.0622 21.0849 14.0081 20.8845 12.695C20.813 12.2258 20.4095 10.622 20.91 8.8127C21.2471 7.59025 22.5099 6.1893 23.585 5.95266V5.94995Z" fill="black"/>
<path id="Vector_2" fill-rule="evenodd" clip-rule="evenodd" d="M30.4596 4.13933C30.4596 4.13933 30.0344 3.22114 29.2593 2.66942C28.4843 2.11904 27.4845 1.48889 25.8846 1.6728C24.9729 1.77692 24.5094 2.01357 24.3345 2.35569C24.1595 2.69646 24.134 3.22114 24.8848 3.24819C25.6343 3.27388 26.6405 3.34014 27.6352 3.45779C28.7358 3.58896 30.3855 4.24481 30.3855 4.24481L30.4609 4.13933H30.4596ZM31.8348 5.46455C31.9969 5.17516 31.6854 3.19545 29.4598 1.41046C28.3553 0.524724 27.2853 0.334055 26.0353 0.0717153C25.2615 -0.0905565 23.6603 -0.00671609 22.5098 0.596394C22.0361 0.845211 21.3594 1.01695 20.6099 2.06631C20.186 2.65995 20.0851 2.69646 19.9102 4.13933C20.0851 4.84792 20.4107 5.3726 21.4347 5.13595C22.46 4.8993 23.2594 4.45441 24.2847 4.34893C25.31 4.24345 26.6494 4.13122 28.2098 4.45441C30.1097 4.84792 31.7352 5.77963 31.8348 5.46455Z" fill="black"/>
<path id="Vector_3" fill-rule="evenodd" clip-rule="evenodd" d="M33.4357 8.35028C33.4357 7.7918 33.866 7.34014 34.3984 7.34014C34.9309 7.34014 35.3612 7.7918 35.3612 8.35028C35.3612 8.90877 34.9309 9.36043 34.3984 9.36043C33.866 9.36043 33.4357 8.90877 33.4357 8.35028ZM36.0098 5.89727C36.0098 5.89727 37.2343 5.7918 38.2852 6.50038C39.1956 7.11431 40.0102 8.62615 40.0102 9.93784V21.2198H41.2603C41.2603 21.2198 41.6855 21.0629 41.7353 20.6951C41.7851 20.3273 41.7353 10.8303 41.7353 10.8303C41.7353 10.8303 41.2603 9.83372 40.7598 9.4916C40.7598 9.4916 41.5348 9.01965 41.6599 8.46793C41.7378 8.12716 41.6599 6.18531 41.6599 6.18531H45.2607V7.83778C45.2607 7.83778 44.9862 8.96556 44.3107 9.46455C44.3107 9.46455 44.7104 10.0163 44.9862 10.5666C45.2607 11.117 45.2364 12.6654 45.2364 12.6654V20.3787C45.2364 20.3787 45.2364 22.2935 43.0364 22.5829H34.9117V21.2455H36.587V8.07442C36.587 8.07442 36.4363 7.5227 36.1873 7.44427C35.9371 7.36583 35.937 7.39153 36.0379 7.75934C36.1375 8.12716 36.2129 9.0183 35.9626 9.41181C35.7123 9.80532 35.0879 10.33 33.8877 10.1988C33.3872 9.96218 32.4372 9.59572 32.7628 7.60113C33.0884 6.78842 33.5378 6.49903 34.1622 6.26374C35.0369 5.94866 36.0124 5.89592 36.0124 5.89592L36.0098 5.89727Z" fill="black"/>
<path id="Vector_4" fill-rule="evenodd" clip-rule="evenodd" d="M57.9352 14.4773C57.9352 14.4773 59.2632 15.1467 59.4853 16.8911C59.6347 18.0716 59.5351 18.5436 59.2593 19.436C59.1074 19.9283 58.935 20.3542 58.5098 20.7477C58.2161 21.0195 57.8599 20.906 57.8854 20.3285C57.9059 19.8566 57.9352 14.4773 57.9352 14.4773ZM46.7104 7.91745C46.7104 7.3522 47.147 6.89379 47.6859 6.89379C48.2247 6.89379 48.6601 7.3522 48.6601 7.91745C48.6601 8.4827 48.2234 8.94112 47.6859 8.94112C47.1483 8.94112 46.7104 8.4827 46.7104 7.91745ZM48.8351 6.00264C49.5348 6.15951 49.6356 6.21224 50.1847 6.73692C50.7593 7.36708 51.1091 7.81333 51.1589 8.73152V16.7342C51.1589 16.7342 52.709 14.1108 54.309 13.3495V6.18655H57.934V13.2183C57.934 13.2183 59.1342 13.7687 60.0089 15.2643C60.8835 16.7599 60.6588 18.8329 60.5592 19.2264C60.4596 19.62 60.0587 21.4036 58.8341 22.1392C58.3285 22.4421 57.8586 22.9262 56.7095 22.8478C56.1093 22.8072 55.1849 22.3759 54.5337 20.9587C54.2694 20.3826 54.309 19.9878 54.309 19.9878V14.7139C54.309 14.7139 53.359 14.7139 51.2087 18.5976V22.5855H46.6082V21.2481H47.6578V9.80792C47.6578 9.80792 46.6325 9.88635 46.0579 8.88973C45.851 8.53003 45.7834 7.34139 46.1575 6.94788C46.3579 6.60711 46.6325 6.2136 47.2824 6.08243C48.0319 6.004 48.1328 5.84578 48.8325 6.004L48.8351 6.00264Z" fill="black"/>
<path id="Vector_5" fill-rule="evenodd" clip-rule="evenodd" d="M18.9333 4.08386H11.0717C5.90165 4.08386 1.71099 8.48143 1.71099 13.9067V14.4868C1.71099 19.9121 5.90165 24.3097 11.0717 24.3097H54.4006C59.5706 24.3097 63.76 19.9121 63.76 14.4868V13.9067C63.76 8.48143 59.5694 4.08386 54.4006 4.08386H32.5382L32.5357 2.48684V2.46655H53.8516C60.2142 2.46655 65.3714 7.73498 65.3714 14.234C65.3714 20.733 60.2142 26.0014 53.8516 26.0014H11.5198C5.15724 26 0 20.7316 0 14.2326C0 7.73363 5.15724 2.46655 11.5198 2.46655H18.9358L18.9333 4.08386Z" fill="#ED1C24"/>
<path id="Vector_6" fill-rule="evenodd" clip-rule="evenodd" d="M9.53418 13.716C9.53418 13.716 8.23433 14.2934 7.75934 15.9986C7.53461 16.8046 7.35968 17.7566 7.83468 18.9628C8.30967 20.1704 8.90979 20.5368 9.48438 20.6951L9.53418 13.716ZM8.68506 7.56321C8.68506 6.96145 9.13835 6.47463 9.69761 6.47463C10.2569 6.47463 10.7102 6.96145 10.7102 7.56321C10.7102 8.16497 10.2569 8.65178 9.69761 8.65178C9.13835 8.65178 8.68506 8.16497 8.68506 7.56321ZM8.4348 6.18525C8.95448 5.7985 8.93533 5.739 9.73464 5.68626C10.6834 5.62406 11.06 5.739 11.9347 6.34211C12.8093 6.94522 12.9843 7.86341 13.0851 8.49357V12.8222C13.0851 12.8222 15.1102 13.95 16.4356 16.1812V6.00269H20.1602V22.3489H16.5109C16.5109 22.3489 16.7357 16.3137 13.1362 14.1109V19.7255C13.1362 19.7255 13.0864 21.1156 12.0368 21.8769C11.5848 22.2042 11.1366 22.7424 9.51119 22.4544C8.88298 22.3421 7.71082 21.5889 6.9613 20.1717C6.60761 19.5037 5.82873 18.1406 6.53611 15.7904C6.98684 14.2948 8.06196 12.8776 9.43586 12.4584V9.51994C9.43586 9.51994 8.03642 9.15212 7.86149 8.23393C7.79892 7.90804 7.66102 6.76402 8.43608 6.18795L8.4348 6.18525Z" fill="black"/>
</g>
<defs>
<clipPath id="clip0_2548_6301">
<rect width="65.3714" height="26" fill="white"/>
</clipPath>
</defs>
</svg>
