<svg width="73" height="26" viewBox="0 0 73 26" fill="none" xmlns="http://www.w3.org/2000/svg">
<g id="Layer_1" clip-path="url(#clip0_2548_6335)">
<path id="Vector" fill-rule="evenodd" clip-rule="evenodd" d="M60.1571 0.5H36.3908V0.520973L36.3945 2.21706H60.7671C66.5311 2.21706 71.2026 6.88952 71.2026 12.6526V13.269C71.2026 19.0321 66.5311 23.7045 60.7671 23.7045H12.4614C6.69833 23.7045 2.02587 19.0321 2.02587 13.269V12.6526C2.02587 6.88952 6.69833 2.21706 12.4614 2.21706H36.3416L36.3443 0.5H12.962C5.87034 0.5 0.119141 6.09527 0.119141 12.9991C0.119141 19.9029 5.87034 25.5 12.962 25.5H60.1562C67.2487 25.5 72.999 19.9029 72.999 12.9991C72.999 6.09527 67.2497 0.5 60.1571 0.5Z" fill="#ED1C24"/>
<g id="Group">
<path id="Vector_2" d="M7.05821 14.8438C6.9032 14.8438 6.75456 14.8246 6.61504 14.7854C6.47461 14.7462 6.3506 14.6888 6.24482 14.6113C6.13904 14.5347 6.05424 14.4398 5.99132 14.3277C5.9284 14.2155 5.89648 14.086 5.89648 13.9383V11.468H6.47005V13.8535C6.47005 13.9356 6.48373 14.0076 6.51291 14.0714C6.54118 14.1343 6.5813 14.1881 6.63419 14.231C6.68617 14.2748 6.74818 14.3076 6.82021 14.3304C6.89225 14.3532 6.97159 14.3641 7.05821 14.3641C7.14484 14.3641 7.22418 14.3523 7.2953 14.3304C7.36643 14.3076 7.42752 14.2748 7.47859 14.231C7.52965 14.1872 7.56887 14.1343 7.59713 14.0714C7.62449 14.0085 7.63908 13.9356 7.63908 13.8535V11.468H8.21265V13.9383C8.21265 14.086 8.18256 14.2155 8.12055 14.3277C8.05945 14.4398 7.97647 14.5347 7.87161 14.6113C7.76674 14.6879 7.64364 14.7462 7.50321 14.7854C7.36369 14.8246 7.21506 14.8438 7.05913 14.8438H7.05821Z" fill="#231F20"/>
<path id="Vector_3" d="M10.0479 12.4191C10.0479 12.3425 10.0397 12.2723 10.0223 12.2094C10.005 12.1465 9.97949 12.0926 9.94575 12.048C9.91201 12.0033 9.86915 11.9686 9.819 11.9449C9.76885 11.9212 9.71049 11.9085 9.64483 11.9085C9.53085 11.9085 9.44239 11.9385 9.37856 11.9996C9.31382 12.0598 9.2819 12.1483 9.2819 12.2641C9.2819 12.3261 9.29741 12.3817 9.32841 12.4319C9.35941 12.482 9.40501 12.5304 9.46428 12.5769C9.52355 12.6234 9.59741 12.6708 9.68313 12.7191C9.76885 12.7674 9.86733 12.8203 9.97767 12.8778C10.0406 12.9106 10.1026 12.9443 10.1628 12.9781C10.223 13.0118 10.2804 13.0483 10.3333 13.0866C10.3862 13.1249 10.4354 13.1668 10.4801 13.2133C10.5248 13.2589 10.5631 13.3118 10.5959 13.3711C10.6278 13.4304 10.6534 13.4969 10.6716 13.5708C10.6898 13.6447 10.699 13.7286 10.699 13.8234C10.699 13.9784 10.678 14.1198 10.6351 14.2474C10.5932 14.3751 10.5294 14.4836 10.4436 14.5748C10.3579 14.666 10.2494 14.7362 10.1172 14.7863C9.98587 14.8365 9.82994 14.862 9.65304 14.862C9.5044 14.862 9.36488 14.8392 9.23631 14.7945C9.10774 14.7499 8.99649 14.6824 8.90439 14.593C8.81229 14.5037 8.74299 14.3915 8.69739 14.2565C8.6518 14.1216 8.63721 13.9638 8.65453 13.7833H9.2354C9.22902 13.8517 9.23175 13.9201 9.24361 13.9903C9.25546 14.0605 9.27826 14.1234 9.31108 14.1799C9.34391 14.2365 9.38859 14.283 9.44422 14.3185C9.49984 14.355 9.57006 14.3723 9.65304 14.3723C9.72508 14.3723 9.78982 14.3632 9.84818 14.345C9.90654 14.3267 9.95578 14.2967 9.99773 14.2565C10.0397 14.2155 10.0716 14.1626 10.0935 14.0979C10.1154 14.0331 10.1263 13.9538 10.1263 13.8608C10.1263 13.7778 10.1081 13.7048 10.0725 13.641C10.0369 13.5781 9.98861 13.5216 9.92842 13.4714C9.86915 13.4213 9.79985 13.3766 9.72052 13.3364C9.64118 13.2963 9.56003 13.2562 9.47522 13.217C9.35668 13.1632 9.24999 13.1076 9.15424 13.0529C9.05941 12.9972 8.97825 12.9334 8.91077 12.8614C8.84329 12.7893 8.79131 12.7063 8.75484 12.6115C8.71836 12.5167 8.70013 12.4045 8.70013 12.2732C8.70013 12.1355 8.72657 12.0142 8.77855 11.9085C8.83144 11.8027 8.90074 11.7133 8.98828 11.6413C9.07582 11.5683 9.17704 11.5136 9.29193 11.4771C9.40683 11.4397 9.5272 11.4215 9.65304 11.4215C9.97858 11.4215 10.2193 11.5054 10.378 11.6741C10.5357 11.8428 10.6142 12.0908 10.6142 12.42H10.0488L10.0479 12.4191Z" fill="#231F20"/>
<path id="Vector_4" d="M8.73006 10.5452H10.5821V11.0257H8.49023L8.73006 10.5452Z" fill="#231F20"/>
<path id="Vector_5" d="M13.5108 13.9528C13.5108 14.0513 13.4944 14.1416 13.4625 14.2236C13.4306 14.3057 13.3859 14.3796 13.3312 14.4461C13.2756 14.5127 13.2108 14.5702 13.1361 14.6203C13.0613 14.6705 12.981 14.7115 12.8953 14.7452C12.8096 14.7781 12.7211 14.8036 12.629 14.82C12.5369 14.8364 12.4458 14.8446 12.3546 14.8446C12.2634 14.8446 12.1695 14.8364 12.0765 14.82C11.9834 14.8036 11.8932 14.779 11.8065 14.7461C11.7208 14.7133 11.6387 14.6723 11.564 14.624C11.4883 14.5756 11.4226 14.5182 11.3661 14.4525C11.3096 14.3869 11.2658 14.313 11.2339 14.2309C11.202 14.1489 11.1855 14.0586 11.1855 13.9601V11.467H11.7591V13.8443C11.7591 13.9264 11.7737 13.9993 11.8038 14.0632C11.8339 14.127 11.874 14.1808 11.9269 14.2255C11.9789 14.2701 12.0418 14.3048 12.1147 14.3276C12.1877 14.3513 12.2679 14.3622 12.3555 14.3622C12.443 14.3622 12.5178 14.3504 12.5889 14.3276C12.6601 14.3039 12.7221 14.2701 12.7731 14.2255C12.8251 14.1808 12.8643 14.1261 12.8935 14.0632C12.9218 13.9993 12.9363 13.9264 12.9363 13.8443V13.2789H12.0856V12.5285H12.6208V12.8066H12.9363V11.468H13.5117V12.8066H13.8054V13.2799H13.5117V13.9528H13.5108Z" fill="#231F20"/>
<path id="Vector_6" d="M13.9735 11.0175H12.0439V10.2889H12.5318V10.5443H13.9726V11.0175H13.9735Z" fill="#231F20"/>
<path id="Vector_7" d="M14.6647 11.7835C14.7823 11.675 14.9109 11.5883 15.0523 11.5245C15.1936 11.4598 15.3404 11.4279 15.4927 11.4279C15.6222 11.4279 15.7435 11.4452 15.8565 11.4789C15.9696 11.5127 16.0681 11.5655 16.152 11.6367C16.2359 11.7078 16.3015 11.7972 16.3499 11.9057C16.3982 12.0133 16.4219 12.1409 16.4219 12.2887V14.8137H15.8565V12.4264C15.8565 12.3507 15.8456 12.2814 15.8246 12.2194C15.8036 12.1574 15.7717 12.1036 15.7307 12.0589C15.6887 12.0142 15.6368 11.9795 15.5738 11.954C15.5109 11.9285 15.438 11.9157 15.355 11.9157C15.2383 11.9157 15.138 11.9367 15.0523 11.9795C14.9665 12.0215 14.8954 12.078 14.8398 12.1482C14.7842 12.2185 14.7422 12.2996 14.7149 12.3917C14.6875 12.4838 14.6747 12.5786 14.6747 12.6771V14.8146H14.1094V11.4689H14.6674V11.7844L14.6647 11.7835Z" fill="#231F20"/>
</g>
<g id="Group_2">
<path id="Vector_8" d="M56.1509 13.2417H55.7953V12.7994H56.5859L56.9807 14.1481C57.0208 14.0141 57.0573 13.8955 57.0883 13.7897C57.1202 13.6849 57.1476 13.5891 57.1713 13.5052C57.195 13.4204 57.216 13.3438 57.2333 13.2754C57.2506 13.2071 57.2661 13.1414 57.2798 13.0794C57.2935 13.0174 57.3044 12.9572 57.3126 12.8988C57.3208 12.8405 57.329 12.7785 57.3354 12.7146C57.3464 12.6098 57.3464 12.5095 57.3345 12.4137C57.3227 12.318 57.298 12.2332 57.2606 12.1593C57.2233 12.0854 57.1731 12.0271 57.1093 11.9824C57.0454 11.9386 56.9679 11.9158 56.8777 11.9158C56.7153 11.9158 56.5913 11.9614 56.5065 12.0517C56.4217 12.1429 56.3752 12.2906 56.3679 12.4967H55.7725C55.7725 12.3399 55.7962 12.1967 55.8436 12.0654C55.891 11.9341 55.9612 11.821 56.0542 11.7271C56.1472 11.6322 56.263 11.5593 56.4017 11.5064C56.5403 11.4535 56.7017 11.428 56.8859 11.428C56.9743 11.428 57.0619 11.4362 57.1503 11.4535C57.2378 11.4708 57.3217 11.4982 57.402 11.5356C57.4822 11.5739 57.5561 11.6231 57.6245 11.686C57.692 11.748 57.7503 11.8246 57.7977 11.9149C57.8452 12.0052 57.8807 12.111 57.9035 12.2323C57.9272 12.3544 57.9336 12.494 57.9254 12.6517C57.9208 12.7219 57.9126 12.794 57.9017 12.8651C57.8907 12.9371 57.8752 13.0156 57.8552 13.0994C57.8351 13.1843 57.8096 13.2782 57.7795 13.383C57.7494 13.4879 57.712 13.6083 57.6682 13.7441C57.6254 13.88 57.5743 14.0359 57.5151 14.211C57.4567 14.3861 57.3892 14.5867 57.3135 14.8129H56.6232L56.1509 13.2408V13.2417Z" fill="#231F20"/>
<path id="Vector_9" d="M56.9434 10.4896C56.9434 10.4103 56.958 10.3364 56.9862 10.2671C57.0154 10.1987 57.0555 10.1385 57.1057 10.0875C57.1558 10.0364 57.2151 9.99629 57.2826 9.96711C57.3501 9.93793 57.4221 9.92334 57.4996 9.92334C57.5771 9.92334 57.6528 9.93793 57.7212 9.96711C57.7905 9.99629 57.8498 10.0364 57.9008 10.0875C57.9519 10.1385 57.992 10.1987 58.0212 10.2671C58.0504 10.3355 58.065 10.4103 58.065 10.4896C58.065 10.5689 58.0504 10.641 58.0212 10.7085C57.992 10.7759 57.9519 10.8352 57.9008 10.8854C57.8498 10.9355 57.7896 10.9756 57.7212 11.0048C57.6528 11.034 57.5789 11.0486 57.4996 11.0486C57.4203 11.0486 57.3501 11.034 57.2826 11.0048C57.2151 10.9756 57.1567 10.9364 57.1057 10.8854C57.0555 10.8352 57.0154 10.7759 56.9862 10.7085C56.957 10.641 56.9434 10.568 56.9434 10.4896ZM57.299 10.4896C57.299 10.517 57.3045 10.5434 57.3154 10.568C57.3263 10.5927 57.3409 10.6136 57.3592 10.6328C57.3774 10.651 57.3993 10.6656 57.423 10.6765C57.4476 10.6875 57.4732 10.693 57.4996 10.693C57.5288 10.693 57.5561 10.6875 57.5817 10.6765C57.6081 10.6656 57.63 10.651 57.6492 10.6328C57.6683 10.6145 57.6829 10.5927 57.6938 10.568C57.7048 10.5434 57.7103 10.517 57.7103 10.4896C57.7103 10.4623 57.7048 10.4331 57.6938 10.4085C57.6829 10.3829 57.6683 10.361 57.6492 10.3419C57.63 10.3227 57.6081 10.3082 57.5817 10.2972C57.5561 10.2863 57.5288 10.2808 57.4996 10.2808C57.4732 10.2808 57.4476 10.2863 57.423 10.2972C57.3984 10.3082 57.3774 10.3227 57.3592 10.3419C57.3409 10.361 57.3263 10.3829 57.3154 10.4085C57.3045 10.434 57.299 10.4604 57.299 10.4896ZM58.1671 12.4036C58.1671 12.2441 58.1963 12.1027 58.2546 11.9796C58.313 11.8574 58.3887 11.7553 58.4835 11.6741C58.5774 11.593 58.686 11.5319 58.8081 11.4899C58.9303 11.448 59.0544 11.4279 59.182 11.4279C59.3097 11.4279 59.4255 11.4471 59.5449 11.4845C59.6644 11.5228 59.772 11.5784 59.8687 11.6541C59.9644 11.7289 60.0419 11.8228 60.1012 11.9349C60.1605 12.0471 60.1896 12.1775 60.1896 12.3261V14.8137H59.6161V12.4191C59.6161 12.338 59.606 12.266 59.5851 12.2021C59.5641 12.1383 59.5349 12.0845 59.4975 12.0416C59.4601 11.9979 59.4136 11.965 59.3607 11.9422C59.3069 11.9194 59.2477 11.9085 59.182 11.9085C59.1218 11.9085 59.0653 11.9194 59.0133 11.9422C58.9604 11.965 58.9139 11.9969 58.8738 12.0398C58.8328 12.0818 58.799 12.1337 58.7735 12.1957C58.748 12.2577 58.7325 12.327 58.727 12.4036H58.1689H58.1671Z" fill="#231F20"/>
<path id="Vector_10" d="M61.9616 11.428C62.061 11.428 62.1595 11.4362 62.2571 11.4535C62.3537 11.4708 62.4467 11.4955 62.5352 11.5292C62.6236 11.5629 62.7048 11.604 62.7787 11.6541C62.8534 11.7043 62.9182 11.7626 62.9729 11.8292C63.0276 11.8958 63.0705 11.9705 63.1015 12.0535C63.1325 12.1356 63.148 12.2277 63.148 12.3271V14.8147H62.5744V12.4374C62.5744 12.3554 62.5607 12.2824 62.5315 12.2177C62.5033 12.1529 62.4622 12.0991 62.4093 12.0544C62.3565 12.0098 62.2917 11.976 62.2169 11.9523C62.1413 11.9286 62.0565 11.9177 61.9616 11.9177C61.8832 11.9177 61.8093 11.924 61.74 11.9368C61.6707 11.9496 61.6069 11.9669 61.5476 11.9906C61.4893 12.0143 61.4364 12.0417 61.3917 12.0736C61.3461 12.1055 61.3087 12.1411 61.2804 12.1803C61.2959 12.204 61.3096 12.2313 61.3233 12.2623C61.3361 12.2933 61.3479 12.3262 61.357 12.3617C61.3671 12.3973 61.3744 12.4329 61.3798 12.4693C61.3853 12.5058 61.388 12.5414 61.388 12.5751V14.8147H60.8227V12.5523C60.8227 12.4775 60.8081 12.4128 60.778 12.3554C60.7479 12.2988 60.6959 12.2587 60.6221 12.2341C60.6895 12.0964 60.7707 11.9769 60.8646 11.8757C60.9576 11.7745 61.0616 11.6906 61.1756 11.624C61.2896 11.5575 61.4127 11.5082 61.5458 11.4763C61.678 11.4444 61.8166 11.428 61.9616 11.428Z" fill="#231F20"/>
<path id="Vector_11" d="M63.62 11.0177H61.6904V10.2891H62.1783V10.5444H63.6191V11.0177H63.62Z" fill="#231F20"/>
<path id="Vector_12" d="M65.4098 13.217L64.2864 14.8137H63.7529V12.3589C63.7529 12.2103 63.7848 12.0781 63.8478 11.9614C63.9107 11.8456 63.9973 11.748 64.1067 11.6686C64.2162 11.5902 64.3447 11.53 64.4915 11.489C64.6384 11.448 64.7952 11.427 64.9612 11.427C65.1271 11.427 65.2867 11.448 65.4362 11.489C65.5849 11.53 65.7153 11.5902 65.8256 11.6686C65.9369 11.748 66.0244 11.8446 66.0882 11.9614C66.153 12.0772 66.1849 12.2094 66.1849 12.3589V14.8137H65.6113V12.4738C65.6113 12.3909 65.5986 12.3143 65.5739 12.2459C65.5484 12.1775 65.5092 12.1182 65.4563 12.0699C65.4034 12.0215 65.3359 11.9832 65.2539 11.9568C65.1718 11.9294 65.0742 11.9158 64.9603 11.9158C64.8463 11.9158 64.7514 11.9294 64.6712 11.9559C64.59 11.9823 64.5244 12.0197 64.4733 12.0671C64.4222 12.1146 64.3849 12.1738 64.3611 12.2431C64.3374 12.3124 64.3247 12.389 64.3247 12.4738V13.9073L64.7824 13.2644H64.4797V12.814H65.408V13.217H65.4098Z" fill="#231F20"/>
</g>
<g id="Group_3">
<path id="Vector_13" d="M19.5555 13.7706H18.4431C18.4431 13.7706 17.9224 13.6274 17.9224 14.2438V17.6761C17.9224 17.6761 17.8038 18.1029 18.6792 18.1029H21.1896C21.1896 18.1029 21.9237 20.068 22.5164 20.5896L23.866 21.2999H27.1934V18.1038H30.6741V20.3762L31.9169 21.2999H37.4821C37.4821 21.2999 37.7192 20.1865 38.3466 19.9969C38.3466 19.9969 39.1873 20.5422 39.708 20.7309C40.2287 20.9206 41.7442 22.0805 43.3072 20.5175L44.2774 21.299H46.5744V18.1029H48.1848V20.4938L48.9891 21.2999H51.6645V18.1038H53.0378C53.0378 18.1038 53.8293 18.1904 53.8667 17.677V14.2438C53.8667 14.2438 53.8211 13.7706 52.9667 13.7706H51.9846C51.9846 13.7706 52.0202 12.1602 51.215 11.2127C51.215 11.2127 51.9846 12.1128 51.9846 11.1416V4.65454L50.6943 3.28125H48.1839V4.53599C48.1839 4.53599 48.255 5.01017 47.6395 4.60712C47.6395 4.60712 43.4959 2.71315 41.7196 7.82695L41.6485 7.98106H38.7013V13.7706H37.7776V12.5386C37.7776 12.5386 38.6302 11.9942 38.3457 10.455C38.3457 10.455 37.8596 9.22395 37.1256 8.48989C37.1256 8.48989 36.6523 7.98106 35.4204 7.98106C35.4204 7.98106 33.7635 7.75583 33.1006 9.627C33.1006 9.627 32.3419 8.15888 29.8087 7.98106L29.9509 10.8343C29.9509 10.8343 30.6139 10.8343 30.6731 11.7581V13.7706H27.1925V11.9231C27.1925 11.9231 27.725 13.1076 28.3169 12.5386C28.3169 12.5386 28.9561 10.4787 30.1634 10.8808L29.9737 7.98015C29.9737 7.98015 27.5828 7.87346 26.6591 9.29416C26.6591 9.29416 26.1375 8.06313 24.5982 7.98015C24.5982 7.98015 22.3258 7.84884 22.1124 10.2407C22.1124 10.2407 21.9228 11.5428 22.9295 12.2532V13.7687H22.1124L21.3547 12.3006L19.5555 11.0222C19.5555 11.0222 18.9628 11.0696 19.034 11.7562C19.034 11.7562 19.2701 13.1295 19.5546 13.7687L19.5555 13.7706Z" fill="#231C1E"/>
<g id="Group_4">
<path id="Vector_14" d="M19.3671 11.687C19.3671 11.687 21.2611 19.0276 22.6818 20.2586H25.8424V16.9321H23.569V17.9981C23.569 17.9981 21.5447 16.0093 19.7328 11.5693C19.7328 11.5693 19.4957 11.2374 19.3662 11.6879L19.3671 11.687Z" fill="white"/>
<path id="Vector_15" d="M19.7691 14.481H18.704C18.704 14.481 18.4551 14.6232 18.4551 14.801V16.6476C18.4551 16.6476 18.4551 17.1445 19.1654 17.1801H20.7995C20.7995 17.1801 19.8758 14.9068 19.7691 14.481Z" fill="white"/>
<path id="Vector_16" d="M21.6514 14.4453C21.6514 14.4453 22.3617 16.1505 22.9654 16.5408H26.7661C26.7661 16.5408 27.4409 16.6119 27.3697 15.9727V14.8009C27.3697 14.8009 27.4053 14.4462 26.695 14.4462H21.6514V14.4453Z" fill="white"/>
<path id="Vector_17" d="M23.5104 14.2685H25.7363V11.7828C25.7363 11.7828 26.7777 11.0961 26.2096 9.79397C26.2096 9.79397 25.7363 8.61035 24.457 8.61035C24.457 8.61035 23.2022 8.61035 22.7043 9.77026C22.7043 9.77026 22.1362 11.2384 23.5095 11.9724V14.2695L23.5104 14.2685Z" fill="white"/>
<path id="Vector_18" d="M26.7543 10.7404C26.7543 10.7404 26.4698 9.95895 27.8668 9.01151C27.8668 9.01151 29.4535 7.92273 31.6082 8.9878C31.6082 8.9878 33.1238 9.69816 33.2186 11.6632V14.2439H31.1578V11.6632C31.1578 11.6632 31.0866 10.8106 30.2586 10.3137C30.2586 10.3137 28.9091 9.50848 27.8668 10.1951C27.8668 10.1951 27.4172 10.5973 27.3698 10.8106C27.3698 10.8106 27.0379 11.2365 26.7543 10.7395V10.7404Z" fill="white"/>
<path id="Vector_19" d="M27.5596 14.2449H28.2462V16.7069H27.5833L27.5596 14.2449Z" fill="white"/>
<path id="Vector_20" d="M28.5898 14.2449H29.2765V16.7069H28.6136L28.5898 14.2449Z" fill="white"/>
<path id="Vector_21" d="M29.5596 14.2449H30.2462V16.7069H29.5842L29.5596 14.2449Z" fill="white"/>
<path id="Vector_22" d="M30.7549 14.4455H33.217C33.217 14.4455 33.8097 14.3862 33.8097 14.8595V16.1854C33.8097 16.1854 33.8571 16.5401 33.3593 16.5401H30.7786C30.7786 16.5401 30.4951 16.4689 30.4476 16.1142V14.7884C30.4476 14.7884 30.4239 14.4446 30.7549 14.4446V14.4455Z" fill="white"/>
<path id="Vector_23" d="M33.2184 16.8728H31.1348V20.2349H33.2184V16.8728Z" fill="white"/>
<path id="Vector_24" d="M33.9762 20.2349H36.6516C36.6516 20.2349 37.4331 18.6245 37.9073 18.3884C37.9073 18.3884 38.4042 20.2349 40.5827 20.2349C40.5827 20.2349 43.1168 20.3297 42.9271 17.5357C42.9271 17.5357 42.7849 15.9491 41.2703 15.4995V8.49085H39.3517V15.4758C39.3517 15.4758 37.7422 15.784 36.7948 17.2047C36.7948 17.2047 36.6051 17.2996 36.5814 16.8728V11.7581C36.5814 11.7581 37.6711 11.1663 37.3154 9.86413C37.3154 9.86413 36.9361 8.49085 35.4917 8.49085C35.4917 8.49085 33.9287 8.34859 33.574 10.0064C33.574 10.0064 33.3843 11.2137 34.5443 11.759V18.1048C34.5443 18.1048 34.5917 18.8379 33.9524 18.909L33.9762 20.2358V20.2349Z" fill="white"/>
<path id="Vector_25" d="M48.5614 20.2349H50.5028V12.0417C50.5028 12.0417 50.0295 8.4899 46.2397 8.4899C46.2397 8.4899 42.6178 8.20631 41.9786 11.9468C41.9786 11.9468 41.6703 13.3675 42.6178 14.6223C42.6178 14.6223 43.4704 15.2387 43.4704 16.5399V20.234H45.3881V16.8719C45.3881 16.8719 45.5057 15.0727 46.7376 14.4445C46.7376 14.4445 48.0644 13.7934 47.8984 12.4438C47.8984 12.4438 47.6851 10.9757 46.0993 10.952C46.0993 10.952 44.6549 10.952 44.6075 12.4912C44.6075 12.4912 44.5838 13.3675 45.1993 13.8408C45.1993 13.8408 44.9385 14.5274 44.726 14.5274C44.5136 14.5274 43.2105 13.3912 43.3765 12.1593C43.3765 12.1593 43.6135 10.0519 46.1467 9.81486C46.1467 9.81486 48.0407 9.83765 48.5623 11.9696V20.234L48.5614 20.2349Z" fill="white"/>
<path id="Vector_26" d="M50.9297 14.4453V16.5408H52.5875C52.5875 16.5408 52.872 16.4934 52.872 16.0912V14.8365C52.872 14.8365 52.8483 14.4462 52.3978 14.4462H50.9297V14.4453Z" fill="white"/>
<path id="Vector_27" d="M42.4289 8.15893C42.4289 8.15893 44.7259 7.11666 46.7147 7.42487C46.7147 7.42487 48.0168 7.51971 49.8643 8.44344C49.8643 8.44344 50.5035 8.86928 50.5035 8.13522V3.70715H48.5621V5.17527C48.5621 5.17527 48.4436 5.67316 47.591 5.08135C47.591 5.08135 45.9095 4.18133 44.1104 5.27102C44.1104 5.27102 42.3577 6.26588 42.4289 8.15984V8.15893Z" fill="white"/>
</g>
<path id="Vector_28" d="M25.1323 10.4796C25.1323 10.8653 24.8196 11.1781 24.4338 11.1781C24.0481 11.1781 23.7354 10.8653 23.7354 10.4796C23.7354 10.0939 24.0481 9.78113 24.4338 9.78113C24.8196 9.78113 25.1323 10.0939 25.1323 10.4796Z" fill="#000A22"/>
<path id="Vector_29" d="M35.4436 10.9411C35.8294 10.9411 36.1421 10.6283 36.1421 10.2426C36.1421 9.85679 35.8294 9.54407 35.4436 9.54407C35.0578 9.54407 34.7451 9.85679 34.7451 10.2426C34.7451 10.6283 35.0578 10.9411 35.4436 10.9411Z" fill="#000A22"/>
<path id="Vector_30" d="M46.94 12.5869C46.94 12.9726 46.6272 13.2854 46.2415 13.2854C45.8557 13.2854 45.543 12.9726 45.543 12.5869C45.543 12.2012 45.8557 11.8884 46.2415 11.8884C46.6272 11.8884 46.94 12.2012 46.94 12.5869Z" fill="#000A22"/>
<path id="Vector_31" d="M41.4821 17.8201C41.4821 18.4283 41.0152 18.9208 40.4398 18.9208C39.8644 18.9208 39.3984 18.4274 39.3984 17.8201C39.3984 17.2128 39.8653 16.7195 40.4398 16.7195C41.0143 16.7195 41.4821 17.2128 41.4821 17.8201Z" fill="#000A22"/>
<path id="Vector_32" d="M44.3466 6.52569C44.2955 6.5804 46.4785 5.77887 48.5613 6.88041C48.5613 6.88041 46.3591 4.34722 44.3466 6.52569Z" fill="#231F20"/>
</g>
</g>
<defs>
<clipPath id="clip0_2548_6335">
<rect width="72.8808" height="25" fill="white" transform="translate(0.119141 0.5)"/>
</clipPath>
</defs>
</svg>
